<svg width="27" height="27" viewBox="0 0 27 27" fill="none" xmlns="http://www.w3.org/2000/svg">
<g clip-path="url(#clip0)">
<path d="M22.4274 2.70833H17.6046V0.880453C17.6046 0.394242 17.2104 0 16.7241 0H10.2751C9.78892 0 9.39468 0.394189 9.39468 0.880453V2.70833H4.57186C4.08565 2.70833 3.69141 3.10252 3.69141 3.58879V6.29706C3.69141 6.78328 4.0856 7.17752 4.57186 7.17752H4.83933L5.64405 26.1569C5.66399 26.6282 6.05195 27.0001 6.52366 27.0001H20.4755C20.9473 27.0001 21.3352 26.6282 21.3551 26.1569L22.1598 7.17746H22.4273C22.9135 7.17746 23.3077 6.78328 23.3077 6.29701V3.58879C23.3079 3.10247 22.9137 2.70833 22.4274 2.70833ZM11.1556 1.76085H15.8437V2.70833H11.1556V1.76085ZM19.6317 25.2391H7.36757L6.60176 7.17752H20.3974L19.6317 25.2391ZM21.5469 5.41661C20.747 5.41661 5.93156 5.41661 5.45231 5.41661V4.46919H21.5469V5.41661Z" fill="#4D8AF0"/>
<path d="M9.9576 9.87744C9.47139 9.87744 9.07715 10.2716 9.07715 10.7579V21.6588C9.07715 22.145 9.47134 22.5393 9.9576 22.5393C10.4438 22.5393 10.8381 22.1451 10.8381 21.6588V10.7579C10.838 10.2716 10.4438 9.87744 9.9576 9.87744Z" fill="#4D8AF0"/>
<path d="M13.4996 9.87744C13.0134 9.87744 12.6191 10.2716 12.6191 10.7579V21.6588C12.6191 22.145 13.0133 22.5393 13.4996 22.5393C13.9858 22.5393 14.38 22.1451 14.38 21.6588V10.7579C14.38 10.2716 13.9858 9.87744 13.4996 9.87744Z" fill="#4D8AF0"/>
<path d="M17.0416 9.87744C16.5554 9.87744 16.1611 10.2716 16.1611 10.7579V21.6588C16.1611 22.145 16.5553 22.5393 17.0416 22.5393C17.5279 22.5393 17.922 22.1451 17.922 21.6588V10.7579C17.922 10.2716 17.5279 9.87744 17.0416 9.87744Z" fill="#4D8AF0"/>
</g>
<defs>
<clipPath id="clip0">
<rect width="27" height="27" fill="white"/>
</clipPath>
</defs>
</svg>
